# xmcd
#
# Track frame offsets: 
#        150
#        15444
#        35959
#        50397
#        66145
#        99883
#        116334
#        135122
#        154362
#        179714
#        195429
#        214701
#        232026
#        263412
#        278564
#
# Disc length: 3947 seconds
#
# Revision: 0
# Processed by: cddbd v1.5.2PL0 Copyright (c) Steve Scherf et al.
# Submitted via: ExactAudioCopy v0.90b4
#
DISCID=c50f690f
DTITLE=The Crossroads Band - Up One Side
DYEAR=2008
DGENRE=Blues
TTITLE0=Fannie Brown Got Married
TTITLE1=Up One Side and Down the Other
TTITLE2=Who
TTITLE3=Something You Got
TTITLE4=The Sun is Shining
TTITLE5=Get Back
TTITLE6=Mixed Up Fool
TTITLE7=My Baby
TTITLE8=Walk Your Blues Away
TTITLE9=Stop Now
TTITLE10=She Used To Be Mine
TTITLE11=Why Do People Act Like That?
TTITLE12=Balck Nights
TTITLE13=Double-Eyed Whammy
TTITLE14=Big D Walks In
EXTD=
EXTT0=
EXTT1=
EXTT2=
EXTT3=
EXTT4=
EXTT5=
EXTT6=
EXTT7=
EXTT8=
EXTT9=
EXTT10=
EXTT11=
EXTT12=
EXTT13=
EXTT14=
PLAYORDER=
